<svg width="96" height="96" viewBox="0 0 96 96" xmlns="http://www.w3.org/2000/svg">
  <defs>
    <linearGradient id="bc-grad" x1="0" y1="0" x2="1" y2="1">
      <stop offset="0" stop-color="#F97316"/>
      <stop offset="1" stop-color="#EA580C"/>
    </linearGradient>
  </defs>
  <rect x="8" y="8" width="80" height="80" rx="20" fill="#020617"/>
  <rect x="12" y="12" width="72" height="72" rx="18" fill="url(#bc-grad)" opacity="0.18"/>
  <path d="M32 30h16c6.5 0 11 3.6 11 9.4 0 4-2.2 6.9-5.8 8.1 4.2 1.1 6.8 4.3 6.8 8.8C60 63 54.9 66 47.3 66H32V30zm7.4 6v8h7c3 0 4.8-1.4 4.8-4.1 0-2.6-1.8-3.9-4.8-3.9h-7zm0 14v10h8.2c3.3 0 5.3-1.6 5.3-4.8 0-3.1-2-4.9-5.3-4.9h-8.2z"
        fill="#F97316"/>
</svg>

